<svg xmlns="http://www.w3.org/2000/svg" version="1.1" xmlns:xlink="http://www.w3.org/1999/xlink" xmlns:svgjs="http://svgjs.dev/svgjs" width="2000" height="1500" viewBox="0 0 2000 1500"><rect width="2000" height="1500" fill="#000000"></rect><g transform="matrix(0.75,0,0,0.75,249.09091188490072,282.7536437246963)"><svg viewBox="0 0 396 247" data-background-color="#ffffff" preserveAspectRatio="xMidYMid meet" height="1247" width="2000" xmlns="http://www.w3.org/2000/svg" xmlns:xlink="http://www.w3.org/1999/xlink"><g id="tight-bounds" transform="matrix(1,0,0,1,0.2399993488253358,-0.09999999999999432)"><svg viewBox="0 0 395.52 247.2" height="247.2" width="395.52"><g><svg></svg></g><g><svg viewBox="0 0 395.52 247.2" height="247.2" width="395.52"><g><g><path xmlns="http://www.w3.org/2000/svg" d="M142.748 247.2v-10.579h129.771l-17.809-48.977 11.308 0 21.665 59.556zM197.76 31.032l-10.377 28.524-11.287 0 21.664-59.556 21.665 59.556-11.293 0zM119.121 247.2h-11.284l21.665-59.556h11.285z" fill="#ffffff" fill-rule="nonzero" stroke="none" stroke-width="1" stroke-linecap="butt" stroke-linejoin="miter" stroke-miterlimit="10" stroke-dasharray="" stroke-dashoffset="0" font-family="none" font-weight="none" font-size="none" text-anchor="none" style="mix-blend-mode: normal" data-fill-palette-color="tertiary"></path></g></g><g transform="matrix(1,0,0,1,0,80.09642529789184)"><svg viewBox="0 0 395.52 87.0071494042163" height="87.0071494042163" width="395.52"><g><svg viewBox="0 0 395.52 87.0071494042163" height="87.0071494042163" width="395.52"><g><svg viewBox="0 0 395.52 87.0071494042163" height="87.0071494042163" width="395.52"><g id="textblocktransform"><svg viewBox="0 0 395.52 87.0071494042163" height="87.0071494042163" width="395.52" id="textblock"><g><svg viewBox="0 0 395.52 87.0071494042163" height="87.0071494042163" width="395.52"><g transform="matrix(1,0,0,1,0,0)"><svg width="395.52" viewBox="0.9000000357627869 -35.5 163.63999938964844 36" height="87.0071494042163" data-palette-color="#6230a3"><path d="M5.85 0L5.85-1.5 24.25-1.5 13.65-30.65 2.5 0 0.9 0 13.65-35.05 26.4 0 5.85 0ZM33.15 0L33.15-1.5 51.55-1.5 40.95-30.65 29.8 0 28.2 0 40.95-35.05 53.7 0 33.15 0ZM59.55-35L61.05-35 61.05 0 59.55 0 59.55-35ZM79.44-35L81.59-35 64.8-18.3 83.19 0 81.05 0 62.64-18.3 79.44-35ZM89.09 0L89.09-1.5 107.49-1.5 96.89-30.65 85.74 0 84.14 0 96.89-35.05 109.64 0 89.09 0ZM114.44-26.35L114.44-26.35Q114.44-31.2 116.89-33.35 119.34-35.5 124.84-35.5L124.84-35.5Q128.69-35.5 131.04-33.5 133.39-31.5 134.44-27.4L134.44-27.4 129.79-23.9 127.34-23.9 132.74-27.95Q131.69-31.3 129.72-32.65 127.74-34 124.84-34L124.84-34Q122.84-34 121.47-33.75 120.09-33.5 118.72-32.77 117.34-32.05 116.64-30.45 115.94-28.85 115.94-26.35L115.94-26.35Q115.94-24.15 117.97-22.45 119.99-20.75 122.89-19.55 125.79-18.35 128.72-17.1 131.64-15.85 133.67-13.9 135.69-11.95 135.69-9.4L135.69-9.4Q135.69-4.4 133.22-1.95 130.74 0.5 124.74 0.5L124.74 0.5Q119.84 0.5 117.04-1.48 114.24-3.45 113.19-7.6L113.19-7.6 114.59-8.2Q115.59-4.15 118.02-2.58 120.44-1 124.74-1L124.74-1Q129.54-1 131.87-2.85 134.19-4.7 134.19-9.4L134.19-9.4Q134.19-11.6 132.17-13.3 130.14-15 127.22-16.2 124.29-17.4 121.39-18.65 118.49-19.9 116.47-21.85 114.44-23.8 114.44-26.35ZM164.54-35L164.54 0 163.04 0 163.04-17.5 145.04-17.5 145.04 0 143.54 0 143.54-35 145.04-35 145.04-19 163.04-19 163.04-35 164.54-35Z" opacity="1" transform="matrix(1,0,0,1,0,0)" fill="#ffffff" class="wordmark-text-0" data-fill-palette-color="primary" id="text-0"></path></svg></g></svg></g></svg></g></svg></g><g></g></svg></g></svg></g></svg></g><defs></defs></svg><rect width="395.52" height="247.2" fill="none" stroke="none" visibility="hidden"></rect></g></svg></g></svg>